# AST/ASF file generated using VICON BodyLanguage
# -----------------------------------------------
:version 1.10
:name VICON
:units
  mass 1.0
  length 0.45
  angle deg
:documentation
   .ast/.asf automatically generated from VICON data using
   VICON BodyBuilder and BodyLanguage model FoxedUp or BRILLIANT.MOD
:root
   order TX TY TZ RX RY RZ
   axis XYZ
   position 0 0 0  
   orientation 0 0 0 
:bonedata
  begin
     id 1 
     name lhipjoint
     direction 0.561001 -0.76473 0.316963 
     length 2.4722 
     axis 0 0 0  XYZ
  end
  begin
     id 2 
     name lfemur
     direction 0.34202 -0.939693 0  
     length 7.59403  
     axis 0 0 20  XYZ
    dof rx ry rz
    limits (-160.0 20.0)
           (-70.0 70.0)
           (-60.0 70.0)
  end
  begin
     id 3 
     name ltibia
     direction 0.34202 -0.939693 0   
     length 7.89655   
     axis 0 0 20   XYZ
    dof rx
    limits (-10.0 170.0)
  end
  begin
     id 4 
     name lfoot
     direction 0.061296 -0.168409 0.98381   
     length 2.73287   
     axis -90 7.62852e-016 20   XYZ
    dof rx rz
    limits (-45.0 90.0)
           (-70.0 20.0)
  end
  begin
     id 5 
     name ltoes
     direction 1.53547e-011 -4.21984e-011 1   
     length 1.37057   
     axis -90 7.62852e-016 20   XYZ
    dof rx
    limits (-90.0 20.0)
  end
  begin
     id 6 
     name rhipjoint
     direction -0.559611 -0.765599 0.317323   
     length 2.46939  
     axis 0 0 0  XYZ 
  end
  begin
     id 7 
     name rfemur
     direction -0.34202 -0.939693 0   
     length 7.53712   
     axis 0 0 -20   XYZ
    dof rx ry rz
    limits (-160.0 20.0)
           (-70.0 70.0)
           (-70.0 60.0)
  end
  begin
     id 8 
     name rtibia
     direction -0.34202 -0.939693 0   
     length 8.12549   
     axis 0 0 -20   XYZ
    dof rx
    limits (-10.0 170.0)
 end
 begin
     id 9 
     name rfoot
     direction -0.066984 -0.184037 0.980634   
     length 2.67541  
     axis -90 -7.62852e-016 -20   XYZ
    dof rx rz
    limits (-45.0 90.0)
           (-20.0 70.0)
  end
  begin
     id 10 
     name rtoes
     direction -1.53549e-011 -4.21786e-011 1   
     length 1.34085   
     axis -90 -7.62852e-016 -20   XYZ
    dof rx
    limits (-90.0 20.0)
  end
  begin
     id 11 
     name lowerback
     direction -0.0522728 0.992594 -0.109658   
     length 2.05633   
     axis 0 0 0   XYZ
    dof rx ry rz
    limits (-20.0 45.0)
           (-30.0 30.0)
           (-30.0 30.0)
  end
  begin
     id 12 
     name upperback
     direction 0.00589338 0.999977 0.00335704   
     length 2.05845   
     axis 0 0 0   XYZ
    dof rx ry rz
    limits (-20.0 45.0)
           (-30.0 30.0)
           (-30.0 30.0)
  end
  begin
     id 13 
     name thorax
     direction 0.0292928 0.998059 0.0549487   
     length 2.09281   
     axis 0 0 0   XYZ
    dof rx ry rz
    limits (-20.0 45.0)
           (-30.0 30.0)
           (-30.0 30.0)
  end
  begin
     id 14 
     name lowerneck
     direction 0.0356368 0.980775 0.191858   
     length 1.84767   
     axis 0 0 0   XYZ
    dof rx ry rz
    limits (-20.0 45.0)
           (-30.0 30.0)
           (-30.0 30.0)
  end
  begin
     id 15 
     name upperneck
     direction -0.0227605 0.98931 -0.14404   
     length 1.89582   
     axis 0 0 0   XYZ
    dof rx ry rz
    limits (-20.0 45.0)
           (-30.0 30.0)
           (-30.0 30.0)
  end
  begin
     id 16
     name head
     direction -0.00932985 0.997511 -0.0698904  
     length 1.90213  
     axis 0 0 0   XYZ
    dof rx ry rz
    limits (-20.0 45.0)
           (-30.0 30.0)
           (-30.0 30.0)
  end
  begin
     id 17 
     name lclavicle
     direction 0.873442 0.479511 0.0846686  
     length 3.41193  
     axis 0 0 0   XYZ
    dof ry rz
    limits (-20.0 10.0)
           (0.0 20.0)
  end
  begin
     id 18 
     name lhumerus
     direction 1 -4.4897e-011 -5.62117e-018   
     length 5.59864   
     axis 180 -30 -90   XYZ
    dof rx ry rz
    limits (-60.0 90.0)
           (-90.0 90.0)
           (-90.0 90.0)
  end
  begin
     id 19
     name lradius
     direction 1 -4.48966e-011 -6.26295e-027   
     length 3.59542   
     axis 180 -30 -90   XYZ
    dof rx
    limits (-10.0 170.0)
  end
  begin
     id 20
     name lwrist
     direction 1 -4.48947e-011 -1.74096e-026   
     length 1.79771   
     axis 1.04567e-014 90 90   XYZ
    dof ry
    limits (-180.0 0.0)
 end
  begin
     id 21 
     name lhand
     direction 1 -4.49085e-011 -3.48469e-026   
     length 0.572014   
     axis 2.22196e-014 90 90   XYZ
    dof rx rz
    limits (-90.0 90.0)
           (-45.0 45.0)
  end
  begin
     id 22 
     name lfingers
     direction 1 -4.48884e-011 -6.96135e-026   
     length 0.461173   
     axis 4.44383e-014 90 90   XYZ
    dof rx
    limits (0.0 90.0)
  end
  begin
     id 23
     name lthumb
     direction 0.707107 -6.34976e-011 0.707107   
     length 0.662154   
     axis -90 45 -5.4397e-014   XYZ
    dof rx rz
    limits (-45.0 45.0)
           (-45.0 45.0)
  end
  begin
     id 24 
     name rclavicle
     direction -0.890242 0.443271 0.104786   
     length 3.46753  
     axis 0 0 0   XYZ 
    dof ry rz
    limits (-10.0 20.0)
           (-20.0 0.0)
  end
  begin
     id 25 
     name rhumerus
     direction -1 -4.48963e-011 -5.41723e-018  
     length 5.8094   
     axis 180 30 90   XYZ
    dof rx ry rz
    limits (-90.0 60.0)
           (-90.0 90.0)
           (-90.0 90.0)
  end
  begin
     id 26 
     name rradius
     direction -1 -4.48958e-011 -6.51059e-027   
     length 3.66953   
     axis 180 30 90   XYZ
    dof rx
    limits (-10.0 170.0)
  end
  begin
     id 27 
     name rwrist
     direction -1 -4.48975e-011 -1.74124e-026   
     length 1.83476   
     axis 1.04567e-014 -90 -90   XYZ
    dof ry
    limits (-180.0 0.0)
  end
  begin
     id 28
     name rhand
     direction -1 -4.49013e-011 -3.48326e-026   
     length 0.57843   
     axis 2.22196e-014 -90 -90   XYZ
    dof rx rz
    limits (-90.0 90.0)
           (-45.0 45.0)
  end
  begin
     id 29
     name rfingers
     direction -1 -4.49023e-011 -6.9669e-026   
     length 0.466345   
     axis 4.44383e-014 -90 -90   XYZ
    dof rx
    limits (0.0 90.0)
  end
  begin
     id 30
     name rthumb
     direction -0.707107 -6.34926e-011 0.707107   
     length 0.669581   
     axis -90 -45 5.4397e-014   XYZ
    dof rx rz
    limits (-45.0 45.0)
           (-45.0 45.0)
  end
:hierarchy
  begin
    root lhipjoint rhipjoint lowerback
    lhipjoint lfemur
    lfemur ltibia
    ltibia lfoot
    lfoot ltoes
    rhipjoint rfemur
    rfemur rtibia
    rtibia rfoot
    rfoot rtoes
    lowerback upperback
    upperback thorax
    thorax lowerneck lclavicle rclavicle
    lowerneck upperneck
    upperneck head
    lclavicle lhumerus
    lhumerus lradius
    lradius lwrist
    lwrist lhand lthumb
    lhand lfingers
    rclavicle rhumerus
    rhumerus rradius
    rradius rwrist
    rwrist rhand rthumb
    rhand rfingers
  end

#!OML:ASF H:\SkateBoarding\Project 1\Capture day 1\Session 1\Skater.ASF
:FULLY-SPECIFIED
:DEGREES
99
root 6.31588 15.8314 1.27656 8.59436 28.082 7.73552
lowerback 12.9454 -1.51325 -5.72198
upperback 1.4457 -2.83773 -0.793813
thorax -5.49405 -1.2646 2.87794
lowerneck -19.1598 -2.97752 0.881052
upperneck 34.876 -3.63121 -2.50112
head 15.3771 -1.69236 -1.86121
rclavicle -3.37934e-014 7.55382e-015
rhumerus -29.1129 19.1052 -79.8614
rradius 43.154
rwrist -10.1718
rhand -29.2425 -2.22847
rfingers 7.12502
rthumb -2.58588 -32.1925
lclavicle -3.37934e-014 7.55382e-015
lhumerus -19.0583 -27.0667 84.9086
lradius 72.6982
lwrist 38.4646
lhand -20.3296 20.1663
lfingers 7.12502
lthumb 6.02165 50.0607
rfemur -62.9154 6.88599 0.0159685
rtibia 93.1428
rfoot -27.8444 21.8815
rtoes -5.74726
lfemur 7.55152 -20.1167 -14.9131
ltibia 41.5162
lfoot -17.8115 -28.9635
ltoes 2.54034
100
root 6.30561 15.8037 1.59926 8.71254 28.1833 7.38243
lowerback 12.6484 -1.59567 -5.34381
upperback 1.2341 -2.87707 -0.639336
thorax -5.56046 -1.28672 2.82786
lowerneck -19.2024 -2.88573 0.928908
upperneck 35.1554 -3.38815 -2.81719
head 15.5185 -1.62404 -1.96871
rclavicle 3.26504e-014 1.15295e-014
rhumerus -28.7767 19.4363 -79.3963
rradius 42.7445
rwrist -9.97619
rhand -29.2045 -2.33594
rfingers 7.12502
rthumb -2.54925 -32.3005
lclavicle 3.26504e-014 1.15295e-014
lhumerus -17.7114 -27.2692 84.1137
lradius 74.2281
lwrist 38.1869
lhand -19.3766 20.0207
lfingers 7.12502
lthumb 6.94159 49.8869
rfemur -63.4126 6.47384 0.261128
rtibia 93.2993
rfoot -27.3683 22.2128
rtoes -5.21402
lfemur 9.37185 -20.09 -14.1228
ltibia 39.0421
lfoot -16.9343 -28.2873
ltoes 3.15739
101
root 6.29132 15.7841 1.93236 8.72109 28.2591 7.05641
lowerback 12.4208 -1.63669 -5.1535
upperback 1.07754 -2.88549 -0.404514
thorax -5.59592 -1.29045 2.96398
lowerneck -19.3018 -2.80687 0.925428
upperneck 35.466 -3.11369 -3.20857
head 15.6921 -1.56023 -2.09737
rclavicle -1.95803e-014 -1.03368e-014
rhumerus -28.3959 19.7045 -78.8091
rradius 42.3543
rwrist -9.68689
rhand -29.1485 -2.57532
rfingers 7.12502
rthumb -2.49514 -32.5405
lclavicle -1.95803e-014 -1.03368e-014
lhumerus -16.3525 -27.3478 83.4166
lradius 75.6639
lwrist 37.8627
lhand -19.5505 19.4633
lfingers 7.12502
lthumb 6.77372 49.335
rfemur -63.7108 6.09917 0.580472
rtibia 93.3878
rfoot -26.9698 22.4273
rtoes -5.17368
lfemur 11.6671 -20.0861 -13.4263
ltibia 35.8749
lfoot -16.087 -27.1212
ltoes 3.80501
102
root 6.27742 15.7715 2.27396 8.72924 28.262 6.66548
lowerback 12.1504 -1.67248 -4.77619
upperback 0.872448 -2.86827 -0.277956
thorax -5.67566 -1.28544 2.87628
lowerneck -19.3467 -2.68558 1.03325
upperneck 35.8399 -2.8383 -3.5332
head 15.8866 -1.4705 -2.21913
rclavicle 1.70955e-014 -7.55382e-015
rhumerus -28.0741 19.799 -78.4399
rradius 41.8744
rwrist -9.32448
rhand -29.0864 -2.54786
rfingers 7.12502
rthumb -2.43512 -32.5137
lclavicle 1.70955e-014 -7.55382e-015
lhumerus -15.2031 -27.4162 82.6214
lradius 77.2604
lwrist 37.4991
lhand -19.6093 19.4509
lfingers 7.12502
lthumb 6.71702 49.3244
rfemur -63.9857 5.78688 1.0084
rtibia 93.441
rfoot -26.5841 22.6371
rtoes -5.16433
lfemur 14.2292 -19.9898 -12.6818
ltibia 32.1258
lfoot -15.1906 -25.5744
ltoes 4.54827
103
root 6.26083 15.7679 2.62676 8.66995 28.2153 6.29592
lowerback 11.9634 -1.70498 -4.45039
upperback 0.65367 -2.85988 -0.158773
thorax -5.81318 -1.2821 2.81507
lowerneck -19.3986 -2.54092 1.06757
upperneck 36.2824 -2.50351 -3.83443
head 16.1268 -1.36219 -2.31142
rclavicle 5.83433e-014 -8.34896e-015
rhumerus -27.8001 19.9746 -78.1391
rradius 41.4653
rwrist -9.12903
rhand -29.0923 -2.58713
rfingers 7.12502
rthumb -2.44088 -32.5529
lclavicle 5.83433e-014 -8.34896e-015
lhumerus -14.1783 -27.3543 81.8496
lradius 78.7512
lwrist 37.2255
lhand -19.5829 19.1698
lfingers 7.12502
lthumb 6.74243 49.0425
rfemur -64.1346 5.57477 1.49843
rtibia 93.4987
rfoot -26.4583 22.6574
rtoes -5.38739
lfemur 17.2745 -19.9381 -12.0311
ltibia 27.6253
lfoot -14.4076 -23.404
ltoes 5.3158
104
root 6.24296 15.7729 2.99004 8.58984 28.1274 5.91865
lowerback 11.7229 -1.7281 -4.17806
upperback 0.456315 -2.84201 -0.0216121
thorax -5.89492 -1.27494 2.79835
lowerneck -19.4633 -2.37409 1.11602
upperneck 36.7387 -2.12225 -4.16963
head 16.3844 -1.23831 -2.41491
rclavicle 3.57812e-015 -5.1684e-015
rhumerus -27.5332 20.0231 -77.8669
rradius 41.0603
rwrist -8.71636
rhand -29.1355 -2.54133
rfingers 7.12502
rthumb -2.48259 -32.5066
lclavicle 3.57812e-015 -5.1684e-015
lhumerus -13.2028 -27.1364 81.1302
lradius 80.1668
lwrist 37.0005
lhand -19.5229 18.5413
lfingers 7.12502
lthumb 6.80043 48.4121
rfemur -64.2459 5.40189 2.0486
rtibia 93.5506
rfoot -26.4709 22.535
rtoes -5.46979
lfemur 20.8502 -19.9236 -11.4565
ltibia 22.1102
lfoot -13.614 -20.5375
ltoes 6.28023
105
root 6.2235 15.7808 3.36008 8.49676 28.0417 5.67125
lowerback 11.5179 -1.75148 -4.06909
upperback 0.262377 -2.8488 0.101896
thorax -5.9837 -1.27546 2.86438
lowerneck -19.4522 -2.17827 1.15694
upperneck 37.1947 -1.68759 -4.50419
head 16.6331 -1.09402 -2.50652
rclavicle 4.58199e-014 -1.35174e-014
rhumerus -27.2807 20.4817 -77.6685
rradius 40.6922
rwrist -8.75464
rhand -29.2466 -2.63963
rfingers 7.12502
rthumb -2.58991 -32.6037
lclavicle 4.58199e-014 -1.35174e-014
lhumerus -12.3402 -26.8855 80.4833
lradius 81.5429
lwrist 36.64
lhand -19.7404 18.3171
lfingers 7.12502
lthumb 6.59041 48.1946
rfemur -64.1998 5.14944 2.56366
rtibia 93.5891
rfoot -26.507 22.4639
rtoes -5.87081
lfemur 25.4482 -20.0244 -11.0923
ltibia 14.7292
lfoot -12.8287 -16.4734
ltoes 7.5195
106
root 6.20433 15.794 3.73611 8.43599 27.9699 5.43718
lowerback 11.2831 -1.71812 -3.88757
upperback 0.00594081 -2.77673 0.141425
thorax -6.13551 -1.23831 2.78939
lowerneck -19.3226 -2.03947 1.28529
upperneck 37.6937 -1.38327 -4.79323
head 16.874 -0.98254 -2.61877
rclavicle 2.88238e-015 -2.26615e-014
rhumerus -27.241 20.3486 -77.5225
rradius 40.4201
rwrist -8.56409
rhand -28.9655 -2.63678
rfingers 7.12502
rthumb -2.31842 -32.6039
lclavicle 2.88238e-015 -2.26615e-014
lhumerus -11.6825 -26.7661 79.8828
lradius 82.9139
lwrist 36.5931
lhand -19.498 17.6101
lfingers 7.12502
lthumb 6.82443 47.4801
rfemur -64.0998 4.87247 3.10967
rtibia 93.5811
rfoot -26.5272 22.4307
rtoes -6.10893
lfemur 33.6772 -20.0562 -10.6587
ltibia 4.45278e-014
lfoot -11.7163 -8.45075
ltoes 9.22482
107
root 6.18547 15.8175 4.11702 8.41768 27.9384 5.27619
lowerback 11.073 -1.79801 -3.68875
upperback -0.240354 -2.85514 0.1579
thorax -6.28115 -1.27649 2.70474
lowerneck -19.2871 -1.80067 1.39215
upperneck 38.1837 -0.906584 -5.10321
head 17.1513 -0.808661 -2.70806
rclavicle -5.35228e-014 1.15295e-014
rhumerus -27.0871 20.6898 -77.5337
rradius 40.0726
rwrist -8.28795
rhand -28.9395 -2.50537
rfingers 7.12502
rthumb -2.29324 -32.4728
lclavicle -5.35228e-014 1.15295e-014
lhumerus -11.0485 -26.4014 79.2098
lradius 84.257
lwrist 36.4308
lhand -19.7111 17.452
lfingers 7.12502
lthumb 6.61867 47.3286
rfemur -63.9015 4.5943 3.58101
rtibia 93.4955
rfoot -26.6537 22.2891
rtoes -6.5676
lfemur 34.3148 -20.1302 -10.2928
ltibia 2.22639e-014
lfoot -11.3993 -7.08189
ltoes 10.9139
108
root 6.16689 15.8482 4.50482 8.44735 27.9853 5.20303
lowerback 10.8031 -1.89541 -3.63442
upperback -0.493178 -2.97099 0.214273
thorax -6.38855 -1.32903 2.74633
lowerneck -19.1795 -1.55173 1.493
upperneck 38.6546 -0.393996 -5.44017
head 17.4111 -0.625218 -2.80087
rclavicle -1.2921e-015 1.98785e-015
rhumerus -26.9088 21.1333 -77.4832
rradius 39.8653
rwrist -8.32609
rhand -28.5263 -2.71355
rfingers 7.12502
rthumb -1.89422 -32.6849
lclavicle -1.2921e-015 1.98785e-015
lhumerus -10.3961 -25.8701 78.6444
lradius 85.4032
lwrist 36.0239
lhand -19.264 16.9215
lfingers 7.12502
lthumb 7.05033 46.7841
rfemur -63.5877 4.30877 3.96485
rtibia 93.3306
rfoot -26.7928 22.3555
rtoes -6.69765
lfemur 34.8805 -20.285 -9.99858
ltibia 3.18055e-014
lfoot -11.1333 -5.18451
ltoes 12.6604
109
root 6.14949 15.8882 4.89253 8.52317 28.0698 5.09508
lowerback 10.5417 -2.07879 -3.47156
upperback -0.752169 -3.18705 0.286288
thorax -6.5047 -1.43385 2.75887
lowerneck -19.1854 -1.23928 1.43206
upperneck 39.1213 0.233512 -5.65198
head 17.7165 -0.404461 -2.78861
rclavicle -2.60905e-014 9.54166e-015
rhumerus -26.6151 21.7979 -77.4719
rradius 39.6753
rwrist -8.29908
rhand -28.2422 -2.91164
rfingers 7.12502
rthumb -1.61984 -32.8852
lclavicle -2.60905e-014 9.54166e-015
lhumerus -9.87677 -25.1333 78.0942
lradius 86.6097
lwrist 35.7537
lhand -19.4343 16.6581
lfingers 7.12502
lthumb 6.88588 46.5261
rfemur -63.2596 4.01339 4.39635
rtibia 93.0659
rfoot -27.0787 22.2468
rtoes -7.21011
lfemur 35.2976 -20.4431 -9.67755
ltibia -7.95139e-014
lfoot -11.1553 -2.55529
ltoes 14.0404
110
root 6.13038 15.9383 5.28493 8.62772 28.2507 5.05807
lowerback 10.2944 -2.27878 -3.29811
upperback -1.03381 -3.42947 0.298054
thorax -6.65596 -1.55216 2.70701
lowerneck -19.08 -0.934157 1.43067
upperneck 39.5372 0.815079 -5.8272
head 17.9678 -0.18919 -2.7739
rclavicle 2.21645e-014 -1.66979e-014
rhumerus -26.4044 22.4165 -77.5376
rradius 39.507
rwrist -8.1779
rhand -27.9429 -2.94475
rfingers 7.12502
rthumb -1.33077 -32.9203
lclavicle 2.21645e-014 -1.66979e-014
lhumerus -9.40338 -24.5395 77.5256
lradius 87.6593
lwrist 35.5432
lhand -19.5059 16.2323
lfingers 7.12502
lthumb 6.81678 46.1026
rfemur -62.7881 3.83033 4.71851
rtibia 92.7159
rfoot -27.4483 22.1941
rtoes -7.54354
lfemur 35.6476 -20.6893 -9.42664
ltibia 6.36111e-015
lfoot -11.5371 0.725576
ltoes 15.1706
